<svg height="512" viewBox="0 0 128 128" width="512" xmlns="http://www.w3.org/2000/svg"><g><path d="m98.142 78.567a295.292 295.292 0 0 1 -34.142 1.833 299.7 299.7 0 0 1 -33.757-1.78c-15.835-1.86-26.237-4.982-26.237-8.52a3.046 3.046 0 0 1 1.448-2.258h.013c8.994-6.822 46.213-8.033 58.533-8.033a298.179 298.179 0 0 1 34.341 1.846 132.148 132.148 0 0 1 16.7 3.042h.014c2.349.672 6.01 1.813 7.838 3.441h.013c6.431 5.825-16.139 9.402-24.764 10.429z" fill="#f5871e"/><path d="m77.258 103.648v2.126a5.313 5.313 0 0 1 -5.314 5.314h-15.516a5.313 5.313 0 0 1 -5.314-5.314v-2.126a5.2 5.2 0 0 1 .066-.8 5.308 5.308 0 0 1 5.248-4.517h15.516a5.308 5.308 0 0 1 5.248 4.517 5.2 5.2 0 0 1 .066.8z" fill="#f5871e"/><path d="m122.905 68.138h-.013c-1.829-1.629-5.492-2.77-7.838-3.441h-.014a130.859 130.859 0 0 0 -16.7-3.042 298.572 298.572 0 0 0 -34.34-1.846c-11.8 0-49.587 1.247-58.533 8.037h-.013l15.012-15.646c13.018-2.385 30.234-3.219 43.534-3.219 13.652 0 30.227.816 43.6 3.229z" fill="#fabe19"/><path d="m53.465 23.86c1.129-.04 2.272-.067 3.414-.093l-21.362 26.45c-5.617.518-10.694 1.183-15.051 1.983l9.339-9.737 17.629-18.363c1.979-.107 3.985-.187 6.031-.24z" fill="#f04b37"/><path d="m107.6 52.21c-4.344-.784-9.379-1.462-14.972-1.98-.492-.053-.983-.093-1.488-.133l-6.257-7.758h-.013l-.013-.013-15-18.572c.743 0 1.487.026 2.218.039 1.236.027 2.471.067 3.68.107 1.634.053 3.255.119 4.836.2l17.629 18.36z" fill="#f04b37"/><path d="m80.593 24.1c-1.581-.08-3.2-.146-4.836-.2-1.209-.04-2.444-.08-3.68-.107-.731-.013-1.475-.039-2.218-.039-1.927-.04-3.88-.054-5.859-.054-.717 0-1.435 0-2.152.014s-1.422 0-2.126.013l-2.843.04c-1.142.026-2.285.053-3.414.093-2.046.053-4.052.133-6.031.239l14.693-15.317a2.6 2.6 0 0 1 3.746 0z" fill="#fabe19"/><g fill="#f5871e"><path d="m91.141 50.1c-8.141-.72-17.377-1.119-27.141-1.119v-25.281c1.979 0 3.932.014 5.859.054l15 18.572.013.013h.014z"/><path d="m64 23.7v25.281c-10.2 0-19.821.439-28.244 1.223a1.48 1.48 0 0 0 -.239.013l21.362-26.45 2.843-.04c.7-.013 1.422-.013 2.126-.013s1.435-.014 2.152-.014z"/></g></g><path d="m89.369 60.779a1.751 1.751 0 0 1 -1.876 1.615l-.657-.048a1.75 1.75 0 0 1 .246-3.492l.673.049a1.751 1.751 0 0 1 1.614 1.876zm36.253 10.472c-1.538 4.821-14.771 7.492-26.094 8.909a36.177 36.177 0 0 1 -6.459 12.871 1.75 1.75 0 1 1 -2.756-2.158 32.729 32.729 0 0 0 5.44-10.284 304.411 304.411 0 0 1 -31.753 1.561 308.911 308.911 0 0 1 -31.365-1.514 33.143 33.143 0 0 0 17.493 19.848 7.107 7.107 0 0 1 6.3-3.9h15.516a7.1 7.1 0 0 1 6.3 3.9 33.244 33.244 0 0 0 4.148-2.314 1.75 1.75 0 0 1 1.923 2.924 36.547 36.547 0 0 1 -5.3 2.88v1.8a7.072 7.072 0 0 1 -7.064 7.064h-2.871l-1.957 1.405 6.061 4.351a1.75 1.75 0 0 1 -2.041 2.844l-7.02-5.041-7.02 5.041a1.75 1.75 0 1 1 -2.041-2.844l6.06-4.351-1.957-1.405h-2.737a7.072 7.072 0 0 1 -7.065-7.064v-1.807a36.622 36.622 0 0 1 -20.5-23.757c-17.642-2.174-26.607-5.57-26.607-10.11 0-2.128.107-1.391 16.947-19.119a1.748 1.748 0 0 1 .948-.51c4.622-.845 9.575-1.472 14.473-1.937l18.512-22.919c-1.715.052-3.36.119-4.921.2l-13.215 13.762a1.75 1.75 0 1 1 -2.525-2.424l28.389-29.584a4.351 4.351 0 0 1 6.27 0l4.44 4.621a1.75 1.75 0 1 1 -2.523 2.426l-4.44-4.62a.848.848 0 0 0 -1.223 0l-11.669 12.164c8.714-.3 20.066-.257 28.962.191a1.845 1.845 0 0 1 1.174.536l42.311 44.039c.093.097 2.242 1.859 1.456 4.325zm-72.759 32.4v2.126a3.569 3.569 0 0 0 3.565 3.564h15.516a3.568 3.568 0 0 0 3.564-3.564v-2.126a3.589 3.589 0 0 0 -3.564-3.563h-15.516a3.588 3.588 0 0 0 -3.565 3.56zm12.887-56.415c5.5.029 13.2.2 21.474.794-.083-.1-2.941-3.638-18.206-22.531q-1.629-.022-3.268-.031zm36.968 2.418-22.9-23.839c-1.983-.1-4.072-.17-6.224-.226l18.44 22.829c3.557.321 7.155.727 10.684 1.236zm-63.264-1.526c9.151-.691 17.634-.862 22.8-.891v-21.771c-1.526.006-3.041.021-4.53.045zm-11.408 28.455a36.362 36.362 0 0 1 .126-12.975c-6.471.8-16.45 2.028-21.753 5.705-.581.4-.663.595-.663.791 0 .787 3.867 4.086 22.29 6.479zm35.954 2.067a296.989 296.989 0 0 0 32.688-1.684 32.656 32.656 0 0 0 -.146-13.745l-.58-.063a1.75 1.75 0 1 1 .367-3.48 133.867 133.867 0 0 1 19.052 3.3 1.263 1.263 0 0 1 .153.036l.029.008-8.831-9.19c-15.317-2.695-33.3-3.1-42.732-3.1-7.665 0-27.033.3-42.664 3.086l-8.728 9.1c17.21-4.79 49.745-4.857 51.392-4.857 4.953 0 9.543.09 14.033.278a1.749 1.749 0 0 1 1.675 1.821 1.7 1.7 0 0 1 -1.821 1.675c-4.441-.185-8.983-.274-13.887-.274-9.251 0-21.328.485-32.155 1.628a32.554 32.554 0 0 0 -.153 13.828 301.455 301.455 0 0 0 32.308 1.633zm58.287-8.462c.05-.156-.4-.6-.56-.744-3.513-3.126-16.881-5.18-21.514-5.8a36.4 36.4 0 0 1 .121 12.877c13.084-1.751 21.372-4.532 21.953-6.333zm-94.435-28.221-1.382 1.44a1.75 1.75 0 1 0 2.53 2.424l1.382-1.44a1.75 1.75 0 1 0 -2.525-2.424zm45.33-25.577a1.749 1.749 0 0 0 -.047 2.474l.375.39a1.75 1.75 0 1 0 2.521-2.428l-.375-.389a1.75 1.75 0 0 0 -2.474-.047zm15.618 81.23q.276-.251.548-.506a1.751 1.751 0 0 0 -2.4-2.547q-.245.233-.5.459a1.75 1.75 0 1 0 2.352 2.594z" fill="#18191e"/></svg>