<svg xmlns="http://www.w3.org/2000/svg" width="1430" height="828">
 <!-- Created with Image Occlusion Enhanced -->
 <g>
  <title>Labels</title>
 </g>
 <g>
  <title>Masks</title>
  <rect id="d0833cd0c97841c3a7616026195dd106-oa-1" height="52.57732" width="326.80413" y="211.17529" x="166.90724" stroke="#2D2D2D" fill="#FFEBA2"/>
  <rect id="d0833cd0c97841c3a7616026195dd106-oa-2" height="25.7732" width="328.86599" y="277.15468" x="164.84538" stroke="#2D2D2D" fill="#FFEBA2"/>
  <rect id="d0833cd0c97841c3a7616026195dd106-oa-3" height="74.22681" width="325.77321" y="314.26808" x="166.90724" stroke="#2D2D2D" fill="#FFEBA2"/>
  <rect id="d0833cd0c97841c3a7616026195dd106-oa-4" height="51.54639" width="327.83506" y="401.89695" x="168.96909" stroke="#2D2D2D" fill="#FFEBA2"/>
  <rect id="d0833cd0c97841c3a7616026195dd106-oa-5" height="75.25773" width="329.89692" y="464.78355" x="165.87631" stroke="#2D2D2D" fill="#FFEBA2"/>
  <rect stroke="#2D2D2D" id="d0833cd0c97841c3a7616026195dd106-oa-6" height="74.2268" width="332.9897" y="554.47427" x="164.84538" fill="#FFEBA2"/>
  <rect stroke="#2D2D2D" id="d0833cd0c97841c3a7616026195dd106-oa-7" height="47.42268" width="329.89692" y="644.165" x="167.93816" fill="#FFEBA2"/>
  <rect id="d0833cd0c97841c3a7616026195dd106-oa-8" height="78.35052" width="327.83506" y="701.89696" x="168.96909" stroke="#2D2D2D" fill="#FFEBA2"/>
  <rect id="d0833cd0c97841c3a7616026195dd106-oa-9" height="21.64949" width="329.89692" y="792.61861" x="166.90724" stroke="#2D2D2D" fill="#FFEBA2"/>
  <rect stroke="#2D2D2D" id="d0833cd0c97841c3a7616026195dd106-oa-10" height="52.57732" width="543.29896" y="212.20618" x="522.06186" fill="#FFEBA2"/>
  <rect stroke="#2D2D2D" id="d0833cd0c97841c3a7616026195dd106-oa-11" height="25.7732" width="543.29899" y="279.2165" x="523.09277" fill="#FFEBA2"/>
  <rect stroke="#2D2D2D" id="d0833cd0c97841c3a7616026195dd106-oa-12" height="74.22681" width="545.36086" y="313.75259" x="523.60824" fill="#FFEBA2"/>
  <rect stroke="#2D2D2D" id="d0833cd0c97841c3a7616026195dd106-oa-13" height="51.54639" width="547.42268" y="401.38145" x="523.60826" fill="#FFEBA2"/>
  <rect stroke="#2D2D2D" id="d0833cd0c97841c3a7616026195dd106-oa-14" height="75.25773" width="545.36086" y="466.84538" x="524.63917" fill="#FFEBA2"/>
  <rect stroke="#2D2D2D" id="d0833cd0c97841c3a7616026195dd106-oa-15" height="73.19588" width="542.26805" y="553.44334" x="526.18555" fill="#FFEBA2"/>
  <rect stroke="#2D2D2D" id="d0833cd0c97841c3a7616026195dd106-oa-16" height="46.39175" width="541.23713" y="644.68044" x="523.60825" fill="#FFEBA2"/>
  <rect stroke="#2D2D2D" id="d0833cd0c97841c3a7616026195dd106-oa-17" height="78.35052" width="544.32992" y="702.41239" x="525.67013" fill="#FFEBA2"/>
  <rect stroke="#2D2D2D" id="d0833cd0c97841c3a7616026195dd106-oa-18" height="25.7732" width="542.26808" y="791.58763" x="523.60824" fill="#FFEBA2"/>
 </g>
</svg>